<svg xmlns="http://www.w3.org/2000/svg" width="1600" height="1000" viewBox="0 0 1600 1000"><rect width="1600" height="1000" fill="#f7f5fb"/><rect width="280" height="1000" fill="#201632"/><text x="48" y="78" fill="white" font-family="Arial" font-size="32" font-weight="700">R · Rezervo</text><text x="340" y="95" fill="#171329" font-family="Arial" font-size="42" font-weight="700">Klijenti</text><text x="340" y="135" fill="#746d80" font-family="Arial" font-size="19">CRM i istorija dolazaka</text><rect x="340" y="190" width="1190" height="720" rx="26" fill="white"/><rect x="390" y="240" width="500" height="55" rx="14" fill="#f5f3f8"/><text x="420" y="275" fill="#8a8393" font-family="Arial" font-size="17">Pretražite klijente...</text><g font-family="Arial"><g fill="#faf9fc"><rect x="390" y="340" width="1090" height="100" rx="16"/><rect x="390" y="465" width="1090" height="100" rx="16"/><rect x="390" y="590" width="1090" height="100" rx="16"/><rect x="390" y="715" width="1090" height="100" rx="16"/></g><g fill="#ddd6fe"><circle cx="445" cy="390" r="28"/><circle cx="445" cy="515" r="28"/><circle cx="445" cy="640" r="28"/><circle cx="445" cy="765" r="28"/></g><g fill="#171329" font-size="20" font-weight="700"><text x="495" y="385">Ana Petrović</text><text x="495" y="510">Miloš Jovanović</text><text x="495" y="635">Marija Ilić</text><text x="495" y="760">Ivana Savić</text></g><g fill="#807888" font-size="15"><text x="495" y="412">12 dolazaka · Šišanje</text><text x="495" y="537">8 dolazaka · Barber paket</text><text x="495" y="662">6 dolazaka · Bojenje</text><text x="495" y="787">4 dolaska · Feniranje</text></g><g fill="#6d28d9" font-size="15" font-weight="700"><text x="1280" y="400">Otvori profil →</text><text x="1280" y="525">Otvori profil →</text><text x="1280" y="650">Otvori profil →</text><text x="1280" y="775">Otvori profil →</text></g></g></svg>
