<svg xmlns="http://www.w3.org/2000/svg" width="1600" height="1000" viewBox="0 0 1600 1000"><rect width="1600" height="1000" fill="#f7f5fb"/><rect width="280" height="1000" fill="#201632"/><text x="48" y="78" fill="white" font-family="Arial" font-size="32" font-weight="700">R · Rezervo</text><text x="340" y="95" fill="#171329" font-family="Arial" font-size="42" font-weight="700">Statistika</text><g font-family="Arial"><rect x="340" y="170" width="340" height="160" rx="24" fill="white"/><rect x="710" y="170" width="340" height="160" rx="24" fill="white"/><rect x="1080" y="170" width="340" height="160" rx="24" fill="white"/><text x="375" y="220" fill="#756d80" font-size="17">Ukupno termina</text><text x="375" y="285" fill="#171329" font-size="48" font-weight="700">184</text><text x="745" y="220" fill="#756d80" font-size="17">Novi klijenti</text><text x="745" y="285" fill="#171329" font-size="48" font-weight="700">32</text><text x="1115" y="220" fill="#756d80" font-size="17">Realizovano</text><text x="1115" y="285" fill="#171329" font-size="48" font-weight="700">91%</text><rect x="340" y="380" width="760" height="500" rx="26" fill="white"/><text x="385" y="440" fill="#171329" font-size="23" font-weight="700">Trend rezervacija</text><path d="M400 760 C500 720 540 590 650 630 S810 500 910 540 S990 420 1040 455" fill="none" stroke="#7c3aed" stroke-width="12" stroke-linecap="round"/><path d="M400 800H1040" stroke="#e9e5f0" stroke-width="2"/><rect x="1140" y="380" width="280" height="500" rx="26" fill="white"/><text x="1180" y="440" fill="#171329" font-size="23" font-weight="700">Top usluge</text><rect x="1180" y="500" width="190" height="20" rx="10" fill="#7c3aed"/><rect x="1180" y="570" width="150" height="20" rx="10" fill="#a78bfa"/><rect x="1180" y="640" width="120" height="20" rx="10" fill="#c4b5fd"/><text x="1180" y="550" fill="#746d80" font-size="15">Šišanje</text><text x="1180" y="620" fill="#746d80" font-size="15">Barber paket</text><text x="1180" y="690" fill="#746d80" font-size="15">Feniranje</text></g></svg>
